HIERARCHY
ROOT Hips
{
  OFFSET 279.157 85.6768 304.565
  CHANNELS 6 Xposition Yposition Zposition Zrotation Xrotation Yrotation
  JOINT LeftUpLeg
  {
    OFFSET 8.64259 1.95398 -2.38835
    CHANNELS 3 Zrotation Xrotation Yrotation
    JOINT LeftLeg
    {
      OFFSET 43.7702 0 0
      CHANNELS 3 Zrotation Xrotation Yrotation
      JOINT LeftFoot
      {
        OFFSET 40.6238 0 0
        CHANNELS 3 Zrotation Xrotation Yrotation
        JOINT LeftToeBase
        {
          OFFSET 12.7242 0 0
          CHANNELS 3 Zrotation Xrotation Yrotation
          End Site
          {
            OFFSET 0 0 0
          }
        }
      }
    }
  }
  JOINT RightUpLeg
  {
    OFFSET -8.2249 1.95398 -2.59336
    CHANNELS 3 Zrotation Xrotation Yrotation
    JOINT RightLeg
    {
      OFFSET 43.5653 0 0
      CHANNELS 3 Zrotation Xrotation Yrotation
      JOINT RightFoot
      {
        OFFSET 40.6238 0 0
        CHANNELS 3 Zrotation Xrotation Yrotation
        JOINT RightToeBase
        {
          OFFSET 12.7242 0 0
          CHANNELS 3 Zrotation Xrotation Yrotation
          End Site
          {
            OFFSET 0 0 0
          }
        }
      }
    }
  }
  JOINT Spine
  {
    OFFSET 0.165834 0.87714 6.61349
    CHANNELS 3 Zrotation Xrotation Yrotation
    JOINT Spine1
    {
      OFFSET 7.38963 1.71661e-005 0
      CHANNELS 3 Zrotation Xrotation Yrotation
      JOINT Spine2
      {
        OFFSET 11.9445 1.14441e-005 0
        CHANNELS 3 Zrotation Xrotation Yrotation
        JOINT Spine3
        {
          OFFSET 14.7254 4.19617e-005 0
          CHANNELS 3 Zrotation Xrotation Yrotation
          JOINT Spine4
          {
            OFFSET 10.9679 0 0
            CHANNELS 3 Zrotation Xrotation Yrotation
            JOINT RightShoulder
            {
              OFFSET 2.46616 -1.6653 3.69651
              CHANNELS 3 Zrotation Xrotation Yrotation
              JOINT RightArm
              {
                OFFSET 13.0012 0 0
                CHANNELS 3 Zrotation Xrotation Yrotation
                JOINT RightForeArm
                {
                  OFFSET 28.7848 1.52588e-005 0
                  CHANNELS 3 Zrotation Xrotation Yrotation
                  JOINT RightHand
                  {
                    OFFSET 26.5688 1.52588e-005 0
                    CHANNELS 3 Zrotation Xrotation Yrotation
                    End Site
                    {
                      OFFSET 0 0 0
                    }
                  }
                }
              }
            }
            JOINT LeftShoulder
            {
              OFFSET 2.38034 -1.29275 -3.7523
              CHANNELS 3 Zrotation Xrotation Yrotation
              JOINT LeftArm
              {
                OFFSET 16.3182 6.10351e-005 0
                CHANNELS 3 Zrotation Xrotation Yrotation
                JOINT LeftForeArm
                {
                  OFFSET 27.0901 0 0
                  CHANNELS 3 Zrotation Xrotation Yrotation
                  JOINT LeftHand
                  {
                    OFFSET 24.5451 1.52588e-005 0
                    CHANNELS 3 Zrotation Xrotation Yrotation
                    End Site
                    {
                      OFFSET 0 0 0
                    }
                  }
                }
              }
            }
            JOINT Neck
            {
              OFFSET 5.0226 -0.0266342 0
              CHANNELS 3 Zrotation Xrotation Yrotation
              JOINT Head
              {
                OFFSET 6.69364 2.86102e-005 0
                CHANNELS 3 Zrotation Xrotation Yrotation
                End Site
                {
                  OFFSET 0 0 0
                }
              }
            }
          }
        }
      }
    }
  }
}
MOTION
Frames:	13
Frame Time:	0.0416667
51.3255 102.887 -334.689 176.476 -84.6174 173.971 178.617 -8.7432 81.9895 -4.50218 5.12644 5.71641 68.349 5.68331 0.400545 17.1381 -8.67439 6.19194 165.582 -5.10624 79.7926 -8.03478 -15.1419 3.27933 67.1708 -4.076 0.727735 27.6699 0.130132 1.79782 0.170162 7.52162 -90.1071 11.831 0.288082 -0.244142 0.160014 0.277056 -0.256603 -22.3753 0.348146 -0.146281 -2.36267 0.348134 -0.146288 89.5201 -31.3894 -107.169 41.7929 -12.6987 -8.86705 -5.41549 -30.7453 -14.269 -16.6378 -1.14105 -7.68244 -90.1921 -54.7273 79.4255 -25.4496 -7.14269 -13.0534 21.7312 66.4837 -24.23 -26.4328 4.68422 -26.5073 7.40537 -3.64792 -3.63032 -6.62217 -3.11041 6.60897 
51.3493 102.878 -334.722 -177.913 -84.9384 179.871 178.796 -8.33049 82.267 -4.70112 4.55646 5.60649 68.5702 5.76628 0.221294 18.8863 -8.3939 8.4339 165.878 -4.84104 80.1786 -7.87914 -15.4764 3.20572 66.9983 -4.09017 0.429224 28.2247 -0.357686 4.08656 0.23288 7.50424 -90.114 11.8661 0.409492 -0.270956 0.195195 0.397178 -0.288728 -22.3404 0.471995 -0.135352 -2.32777 0.47199 -0.135364 90.1954 -31.5615 -105.797 41.4294 -14.0254 -9.63246 -5.40588 -30.3453 -14.9687 -16.6795 -1.18576 -7.08495 -90.163 -54.6443 79.4498 -25.6907 -6.75572 -13.0261 18.9467 64.0563 -21.5299 -28.9684 5.19595 -26.3934 7.42349 -3.49892 -3.97117 -7.12408 -2.93935 6.95382 
51.45 102.838 -334.955 -172.109 -85.4963 -173.516 179.438 -7.04449 83.2244 -5.99172 4.54091 5.24492 69.1656 5.98412 0.269689 17.5759 -8.9959 7.76645 166.372 -4.85557 81.0336 -6.42371 -14.7746 3.24804 65.7946 -3.56014 1.32367 28.8623 -0.328511 2.35281 0.229764 7.47419 -90.1978 11.9259 0.363687 -0.433869 0.254892 0.344244 -0.449467 -22.2803 0.477269 -0.304505 -2.26768 0.477267 -0.304517 89.3202 -31.5011 -107.504 40.4417 -14.72 -9.20535 -5.10037 -29.0596 -16.0643 -17.0425 -1.21818 -6.22192 -90.0658 -55.3471 79.7266 -24.9478 -5.07054 -12.8347 14.4233 57.6065 -17.0782 -24.0466 3.34645 -22.1589 7.8976 -3.42621 -3.40559 -7.66361 -2.99214 6.7911 
51.6934 102.79 -335.273 -164.671 -86.0853 -165.147 -179.491 -4.85766 84.4776 -8.79387 4.76968 4.42833 70.6659 6.71031 0.673594 16.8515 -9.15588 6.9506 167.309 -4.23835 82.1908 -6.33009 -13.7123 3.00929 65.3655 -3.39888 1.89307 29.729 -0.69211 3.08208 0.315449 7.44993 -90.3127 11.9754 0.479775 -0.675598 0.304353 0.449591 -0.696067 -22.2307 0.660642 -0.500169 -2.21803 0.660646 -0.500177 87.721 -31.1586 -110.739 39.799 -13.7672 -6.99176 -5.99945 -26.3678 -18.6136 -16.9286 -1.15105 -5.80433 -90.4566 -55.5841 79.2228 -24.7671 -2.44542 -12.6442 9.53734 47.9161 -12.0413 -21.2961 2.63681 -20.7599 7.25836 -3.03158 -2.72593 -6.38376 -2.65706 6.02987 
52.2041 102.708 -335.476 -165.513 -86.7522 -165.425 -178.551 -2.66274 85.3598 -11.8275 5.2037 3.44815 72.3278 7.58018 0.27541 17.1311 -9.1057 7.28658 168.452 -3.55936 83.1976 -6.86505 -12.4811 2.27699 65.417 -3.64068 1.71561 30.3744 -0.766123 1.94061 0.311776 7.43643 -90.3744 12.002 0.443257 -0.795098 0.330914 0.407841 -0.813833 -22.2035 0.661723 -0.625127 -2.19089 0.661721 -0.625128 87.4492 -30.9252 -111.361 39.5797 -13.2478 -5.87884 -7.80904 -25.9319 -21.8014 -15.2569 -1.36529 -3.31465 -89.9089 -55.6598 80.0073 -24.2451 1.77681 -12.2545 4.40085 34.1471 -7.98419 -25.4218 4.46056 -26.4239 5.70716 -2.05334 -1.90861 -4.25952 -1.74023 4.17378 
52.9453 102.487 -335.456 -164.133 -86.8844 -163.101 -176.768 -0.588577 86.8589 -15.8987 6.77669 1.79628 74.3747 8.95731 0.468736 16.3234 -9.69345 7.43501 170.042 -3.3348 84.6849 -7.92606 -11.1791 1.0944 65.9462 -4.32647 1.45444 30.519 -0.789135 1.74027 0.412447 7.49893 -90.5538 11.8776 0.559509 -1.16435 0.206227 0.507726 -1.18785 -22.3269 0.883556 -0.942403 -2.31428 0.883556 -0.942402 86.982 -30.7536 -112.336 38.7215 -11.5155 -4.72226 -9.07341 -25.7833 -23.3797 -14.6944 -1.32744 -3.60458 -89.9586 -55.9893 80.0012 -24.0029 6.11466 -12.0127 3.08249 21.0335 -7.54811 -15.2479 1.49871 -18.034 7.34626 -3.12651 -1.37152 -6.73191 -2.99693 4.90644 
53.754 101.863 -335.148 -157.435 -87.2584 -155.893 -175.346 1.91066 87.5707 -20.6654 7.58617 0.306978 77.2052 10.4617 0.397736 15.9426 -9.78548 7.04558 172.58 0.574301 85.8104 -14.9 -8.79284 -0.653835 67.3126 -5.89413 0.575259 34.3204 -1.92629 0.821744 0.429888 7.54307 -90.6467 11.7892 0.551036 -1.34775 0.117655 0.491196 -1.3707 -22.4143 0.930589 -1.11988 -2.40163 0.930595 -1.11987 86.4096 -31.5506 -113.064 36.278 -11.5348 -5.32378 -6.42476 -21.7233 -20.8761 -16.6832 -1.10027 -4.36222 -90.2704 -55.6128 79.4903 -24.0176 9.80475 -11.509 1.1863 10.112 -7.37869 -4.39042 -9.10468e-005 -11.9546 6.95237 -2.49076 -1.6609 -5.13871 -2.20924 3.62828 
54.3341 101.473 -334.249 -123.929 -86.4293 -121.794 -174.083 2.6557 88.683 -22.486 6.56153 -0.968397 79.0892 11.2826 -0.337188 16.3678 -9.6977 7.51887 176.767 9.1724 87.961 -31.4092 1.82715 -2.75264 72.5785 -6.39125 7.322 25.203 0.0471573 6.64653 0.433962 7.55818 -90.5936 11.7595 0.584304 -1.24495 0.0880391 0.528957 -1.26945 -22.4448 0.931427 -1.01182 -2.43215 0.931441 -1.01181 85.9912 -34.3113 -112.616 34.6278 -9.99394 -4.82182 -7.76113 -18.3639 -23.1548 -16.1019 -1.03823 -3.60918 -90.212 -53.1006 79.0666 -24.822 11.6049 -10.2035 -0.156091 3.77675 -6.52392 -2.77728 -0.0741444 -10.3662 6.15292 -1.69277 -4.73637 -3.04467 -0.78821 3.80542 
54.7494 101.703 -332.717 -112.581 -84.4426 -110.559 -174.351 -0.116726 87.7544 -19.1888 4.20123 -0.912845 78.0985 11.2897 -0.22888 16.6285 -9.28585 6.91415 178.226 16.9906 90.6281 -39.7512 -7.58285 -3.09761 68.4327 -4.8976 0.885899 28.6505 -0.388068 3.33464 0.219695 7.68176 -90.5728 11.5098 0.169261 -1.15855 -0.161652 0.118101 -1.16488 -22.6933 0.509606 -1.05414 -2.68068 0.509602 -1.05415 87.7486 -33.8279 -109.577 36.4726 -9.29059 -5.06012 -10.3821 -19.4456 -26.6569 -13.499 -1.18678 -2.04329 -89.9281 -53.193 79.4965 -23.2734 11.5527 -10.8714 -0.472585 7.89901 -5.32711 -0.919605 -0.143021 -8.50851 6.75487 -0.181017 -4.50866 -3.46943 0.67284 3.16506 
54.8907 101.378 -330.375 -105.659 -82.8878 -104.403 -175.212 -2.55199 86.1658 -17.1475 1.09888 -0.518594 78.6838 11.9593 -0.297215 17.5739 -9.03862 7.85515 178.631 20.6183 92.7655 -33.0082 -14.3912 -2.01963 66.4794 -3.92418 -0.612522 30.3999 -0.880853 2.8661 -0.0400838 7.70711 -90.4559 11.4577 -0.2927 -0.87834 -0.2135 -0.331078 -0.864615 -22.7463 -0.0152074 -0.925699 -2.73365 -0.0152036 -0.925695 87.4 -34.0284 -110.141 37.1332 -7.46642 -2.5407 -9.84199 -22.6648 -28.1646 -14.1024 -1.56879 0.65055 -90.3686 -52.0301 78.6174 -23.3802 11.7896 -11.8019 -0.86079 7.3154 -4.45901 -3.35617 -0.0704369 -7.5863 6.25132 0.808844 -6.23409 -3.89003 1.92888 4.34383 
54.6852 100.741 -326.875 -101.524 -81.5828 -100.546 -175.181 -5.51895 85.5818 -15.4947 -0.846541 -0.607932 80.1847 12.9808 -0.649218 19.2328 -8.27966 8.75679 178.285 20.8801 95.6214 -18.5133 -12.9825 0.418083 66.6609 -4.10788 -0.891355 26.5923 0.238009 3.4524 -0.231435 7.78007 -90.3226 11.3112 -0.610882 -0.581845 -0.359647 -0.635891 -0.554398 -22.8944 -0.407768 -0.738527 -2.88178 -0.407767 -0.738537 87.3931 -34.7861 -109.85 37.9892 -6.26 -0.694217 -6.82413 -21.4107 -26.3353 -15.5018 -1.3343 -1.49896 -90.5316 -51.0551 78.1668 -22.1809 12.3147 -15.0936 -0.543123 6.92297 -5.74473 2.71681 -0.165075 -6.39011 6.58887 1.50123 -8.40554 -3.59751 3.0526 4.93575 
54.5775 99.693 -321.809 -100.308 -84.2235 -98.3651 -174.64 -8.62698 86.9707 -14.9552 1.49073 0.0314889 82.7874 14.3193 -1.07689 20.4538 -8.07257 10.433 178.613 21.03 97.7212 -8.83307 -4.34281 2.27762 64.4101 -3.29107 -1.1036 23.0293 1.39129 3.22682 -0.593961 7.69717 -90.484 11.4759 -1.40775 -0.818193 -0.194581 -1.4424 -0.755451 -22.7316 -1.09679 -1.20346 -2.71897 -1.0968 -1.20347 87.1199 -34.9561 -110.281 38.5918 -5.19193 2.33098 -2.70459 -22.2797 -21.6084 -17.154 -1.25396 -3.12797 -90.6444 -51.2326 78.04 -22.1379 11.6766 -19.3442 0.104366 7.54476 -5.46927 2.71846 -0.152284 -5.7904 5.96206 1.32017 -8.57563 -4.06541 2.85026 4.74101 
54.8861 98.5677 -314.009 -135.236 -83.5637 -132.527 -174.315 -21.2614 87.2291 -6.5239 1.97035 1.02039 80.6369 15.5634 0.355442 24.3215 -5.73364 11.3298 177.923 20.9524 98.645 -19.8534 -5.66511 2.40887 65.84 -1.93921 1.72907 22.4719 1.13785 5.5105 -0.651368 8.00758 -90.7268 10.8482 -1.63264 -1.29285 -0.822297 -1.68795 -1.21974 -23.3571 -1.16867 -1.7237 -3.34441 -1.16867 -1.7237 87.6854 -34.7095 -109.345 37.4725 -3.36488 5.37836 2.32549 -21.6239 -16.1838 -12.6113 -0.930821 -5.04852 -90.329 -51.6011 78.5834 -24.1368 13.2574 -22.391 0.115804 7.21867 -6.47562 3.55119 -0.174493 -5.99243 6.30304 1.20052 -6.75487 -4.87773 2.38942 3.95591 
